<?xml version="1.0" encoding="UTF-8"?>
<svg width="80px" height="80px" viewBox="0 0 80 80" version="1.1" xmlns="http://www.w3.org/2000/svg" xmlns:xlink="http://www.w3.org/1999/xlink">
    <title>LocalShare Icon</title>
    <defs>
        <linearGradient x1="0%" y1="0%" x2="100%" y2="100%" id="linearGradient">
            <stop stop-color="#4F46E5" offset="0%"></stop>
            <stop stop-color="#9333EA" offset="100%"></stop>
        </linearGradient>
    </defs>
    <g stroke="none" stroke-width="1" fill="none" fill-rule="evenodd">
        <rect fill="white" x="0" y="0" width="80" height="80" rx="20"></rect>
        <path d="M40,20 C48.8,20 56,27.2 56,36 C56,36.6 55.96,37.18 55.9,37.76 L61.78,33.64 C62.36,33.22 63.16,33.36 63.58,33.94 C64,34.52 63.86,35.32 63.28,35.74 L54.86,41.56 C54.56,41.78 54.18,41.86 53.82,41.8 C53.46,41.74 53.14,41.54 52.92,41.24 L47.1,32.82 C46.68,32.24 46.82,31.44 47.4,31.02 C47.98,30.6 48.78,30.74 49.2,31.32 L53.12,36.88 C53.04,29.22 47.18,23 40,23 C32.84,23 27,28.84 27,36 C27,36.82 27.8,37.5 28.5,37.5 C29.32,37.5 30,36.82 30,36 C30,30.48 34.48,26 40,26 C45.52,26 50,30.48 50,36 C50,36.82 50.68,37.5 51.5,37.5 C52.32,37.5 53,36.82 53,36 C53,28.82 47.18,23 40,23 C32.82,23 27,28.82 27,36 C27,43.18 32.82,49 40,49 C47.18,49 53,43.18 53,36 C53,35.18 52.32,34.5 51.5,34.5 C50.68,34.5 50,35.18 50,36 C50,41.52 45.52,46 40,46 C34.48,46 30,41.52 30,36 C30,35.18 29.32,34.5 28.5,34.5 C27.68,34.5 27,35.18 27,36 C27,43.16 32.84,49 40,49 C47.16,49 53,43.16 53,36 C53,28.84 47.16,23 40,23 M25.06,40.84 L16.64,47.14 C16.06,47.56 15.92,48.36 16.34,48.94 C16.76,49.52 17.56,49.66 18.14,49.24 L26.56,42.94 C27.14,42.52 27.28,41.72 26.86,41.14 C26.44,40.56 25.64,40.42 25.06,40.84 Z M22.94,32.96 C23.22,32.74 23.6,32.66 23.96,32.72 C24.32,32.78 24.64,32.98 24.86,33.28 L30.68,41.7 C31.1,42.28 30.96,43.08 30.38,43.5 C29.8,43.92 29,43.78 28.58,43.2 L22.76,34.78 C22.34,34.2 22.48,33.4 23.06,32.98 L22.94,32.96 Z M40,20 C31.2,20 24,27.2 24,36 C24,36.6 24.04,37.18 24.1,37.76 L18.22,33.64 C17.64,33.22 16.84,33.36 16.42,33.94 C16,34.52 16.14,35.32 16.72,35.74 L25.14,41.56 C25.44,41.78 25.82,41.86 26.18,41.8 C26.54,41.74 26.86,41.54 27.08,41.24 L32.9,32.82 C33.32,32.24 33.18,31.44 32.6,31.02 C32.02,30.6 31.22,30.74 30.8,31.32 L26.88,36.88 C26.96,29.22 32.82,23 40,23 C47.18,23 53,28.84 53,36 C53,36.82 52.2,37.5 51.5,37.5 C50.68,37.5 50,36.82 50,36 C50,30.48 45.52,26 40,26 C34.48,26 30,30.48 30,36 C30,36.82 29.32,37.5 28.5,37.5 C27.68,37.5 27,36.82 27,36 C27,28.82 32.82,23 40,23 C47.18,23 53,28.82 53,36 C53,43.18 47.18,49 40,49 C32.82,49 27,43.18 27,36 C27,35.18 27.68,34.5 28.5,34.5 C29.32,34.5 30,35.18 30,36 C30,41.52 34.48,46 40,46 C45.52,46 50,41.52 50,36 C50,35.18 50.68,34.5 51.5,34.5 C52.32,34.5 53,35.18 53,36 C53,43.16 47.16,49 40,49 C32.84,49 27,43.16 27,36 C27,28.84 32.84,23 40,23 M63.28,40.84 L54.86,47.14 C54.28,47.56 54.14,48.36 54.56,48.94 C54.98,49.52 55.78,49.66 56.36,49.24 L64.78,42.94 C65.36,42.52 65.5,41.72 65.08,41.14 C64.66,40.56 63.86,40.42 63.28,40.84 Z" fill="url(#linearGradient)" fill-rule="nonzero"></path>
    </g>
</svg>
